[center][img]http://img829.imageshack.us/img829/2387/forgedf.jpg[/img]


Forged.2010.DVDRip.XVID.AC3.HQ.Hive-CM8


Thx Hive

CM8 Doing It Right The First Time 


Source: DVD-R

Encode:

Dvd had good quality and has good reviews.
Added sharpness,rgb,denoise
got nice
enjoy


Video: 720x304 @bitrate 1600 2pass
Audio: English AC3 5.1 @448
Sample: yes included

 
http://www.imdb.com/title/tt1380995/


General
Complete name                  : Forged.2010.DVDRip.XVID.AC3.HQ.Hive-CM8.avi
Format                         : AVI
Format/Info                    : Audio Video Interleave
File size                      : 1.12 GiB
Duration                       : 1h 18mn
Overall bit rate               : 2 057 Kbps
Writing application            : Nandub v1.0rc2
Writing library                : Nandub build 1853/release

Video
ID                             : 0
Format                         : MPEG-4 Visual
Format profile                 : Advanced Simple@L5
Format settings, BVOP          : 2
Format settings, QPel          : Yes
Format settings, GMC           : No warppoints
Format settings, Matrix        : Default (H.263)
Muxing mode                    : Packed bitstream
Codec ID                       : XVID
Codec ID/Hint                  : XviD
Duration                       : 1h 18mn
Bit rate                       : 1 599 Kbps
Width                          : 720 pixels
Height                         : 304 pixels
Display aspect ratio           : 2.35:1
Frame rate                     : 23.976 fps
Color space                    : YUV
Chroma subsampling             : 4:2:0
Bit depth                      : 8 bits
Scan type                      : Progressive
Compression mode               : Lossy
Bits/(Pixel*Frame)             : 0.305
Stream size                    : 894 MiB (78%)
Writing library                : XviD 1.2.1 (UTC 2008-12-04)

Audio
ID                             : 1
Format                         : AC-3
Format/Info                    : Audio Coding 3
Mode extension                 : CM (complete main)
Codec ID                       : 2000
Duration                       : 1h 18mn
Bit rate mode                  : Constant
Bit rate                       : 448 Kbps
Channel(s)                     : 6 channels
Channel positions              : Front: L C R, Side: L R, LFE
Sampling rate                  : 48.0 KHz
Bit depth                      : 16 bits
Compression mode               : Lossy
Stream size                    : 250 MiB (22%)
Alignment                      : Split accross interleaves
Interleave, duration           : 42 ms (1.00 video frame)
Interleave, preload duration   : 500 ms


Plot:

An ex-thug and his son attempt to find a way to move past impossible circumstances to forge a bond 
that has been forever broken by the murder of the child's mother. 

Cast:

Manny Perez	... Chuco
David Castro	... Machito
Margo Martindale	... Dianne
Jaime Tirelli	... Cesar
Kevin Breznahan	... Moose

[img]http://img543.imageshack.us/img543/2039/39332011.png[/img]
[img]http://img97.imageshack.us/img97/6020/fofov.png[/img]
[img]http://img148.imageshack.us/img148/4704/fofofo.png[/img]
[img]http://img834.imageshack.us/img834/3450/fofofofo.png[/img]
[img]http://img585.imageshack.us/img585/5503/fofofofofo.png[/img][/center]